<svg id="visual" viewBox="0 0 900 600" width="900" height="600" xmlns="http://www.w3.org/2000/svg" xmlns:xlink="http://www.w3.org/1999/xlink" version="1.1"><g transform="translate(511.49569673594453 333.60630418465195)"><path d="M113.9 -156.3C144.7 -109.9 164.7 -71.2 180.3 -25.5C195.9 20.3 207 73.1 188.7 112.7C170.3 152.3 122.5 178.6 71.4 197.8C20.4 217.1 -33.7 229.3 -97 224.5C-160.2 219.7 -232.5 197.8 -274.5 147.6C-316.5 97.4 -328.1 18.7 -317.5 -58.5C-306.9 -135.7 -273.9 -211.5 -217.3 -253.3C-160.7 -295.2 -80.3 -303.1 -19.4 -280C41.6 -256.9 83.1 -202.7 113.9 -156.3" fill="#e1dfff"></path></g></svg>