<svg xmlns="http://www.w3.org/2000/svg" xmlns:xlink="http://www.w3.org/1999/xlink" xmlns:svgjs="http://svgjs.com/svgjs" class="animated" id="freepik_stories-programming" viewBox="0 0 500 500" version="1.1">
    <style>svg#freepik_stories-programming:not(.animated) .animable {
        opacity:
            0;
    }
    
    svg#freepik_stories-programming.animated #freepik--Screens--inject-12 {
        animation: 1s 1 forwards cubic-bezier(.36, -0.01, .5, 1.38) fadeIn, 2.3s Infinite linear floating;
        animation-delay:
            0s, 1s;
    }
    
    @keyframes fadeIn {
        0% {
            opacity: 0;
        }
    
        100% {
            opacity: 1;
        }
    }
    
    @keyframes floating {
        0% {
            opacity: 1;
            transform: translateY(0px);
        }
    
        50% {
            transform: translateY(-10px);
        }
    
        100% {
            opacity: 1;
            transform: translateY(0px);
        }
    }
    
    .animator-hidden {
        display: none;
    }</style>
    
    
    <g id="freepik--Screens--inject-12" class="animable" style="transform-origin: 254.065px 161.78px;">
        <rect x="295.03" y="135.41" width="140.13" height="114.16" style="fill: rgb(224, 224, 224); transform-origin: 365.095px 192.49px;" id="elejkyszeje2h" class="animable"/>
        <rect x="285.07" y="142.66" width="140.13" height="114.16" style="fill: rgb(235, 235, 235); transform-origin: 355.135px 199.74px;" id="el52027g3ka67" class="animable"/>
        <rect x="271.34" y="150.61" width="143.87" height="117.21" style="fill: rgb(255, 255, 255); transform-origin: 343.275px 209.215px;" id="el9a2ycahuysv" class="animable"/>
        <path d="M415.21,267.82s0-.75,0-2.16,0-3.53,0-6.26c0-5.48,0-13.51-.05-23.75,0-20.46-.07-49.73-.12-85l.22.22-143.85,0h0l.26-.26c0,42.38,0,82.4,0,117.21l-.24-.24,104,.12,29.42.06,7.79,0h2l.69,0h-2.64l-7.75,0-29.37.06-104.11.12h-.23v-.23c0-34.81,0-74.83,0-117.21v-.26h.28l143.85,0h.22v.22c-.05,35.36-.09,64.68-.11,85.18,0,10.21-.05,18.23-.06,23.7,0,2.71,0,4.8,0,6.21S415.21,267.82,415.21,267.82Z" style="fill: rgb(38, 50, 56); transform-origin: 343.405px 209.09px;" id="eljlz8bxkb7x9" class="animable"/>
        <path d="M288.88,167.55l-1.55.56,1.55.57v.58l-2.21-.84v-.61l2.21-.84Z" style="fill: #7E57C2; transform-origin: 287.775px 168.115px;" id="eljmsiserxxr8" class="animable"/>
        <path d="M292.52,166.49v3.25h-.75v-1.33h-1.48v1.33h-.75v-3.25h.75v1.28h1.48v-1.28Z" style="fill: #7E57C2; transform-origin: 291.03px 168.115px;" id="eli7xdvzy1yl" class="animable"/>
        <path d="M294,167.1h-1v-.61h2.83v.61h-1v2.64H294Z" style="fill: #7E57C2; transform-origin: 294.415px 168.115px;" id="elhwjsg517qe" class="animable"/>
        <path d="M299.11,169.74v-2l-1,1.6h-.34l-.95-1.56v1.91h-.71v-3.25h.62l1.22,2,1.2-2h.61v3.25Z" style="fill: #7E57C2; transform-origin: 297.935px 168.09px;" id="el4900tk6rzg2" class="animable"/>
        <path d="M300.58,166.49h.75v2.64H303v.61h-2.38Z" style="fill: #7E57C2; transform-origin: 301.79px 168.115px;" id="elkf3s40q9qxd" class="animable"/>
        <path d="M305.48,167.81v.61l-2.2.84v-.58l1.54-.57-1.54-.56V167Z" style="fill: #7E57C2; transform-origin: 304.38px 168.13px;" id="elrx1zrwzazw" class="animable"/>
        <path d="M287.57,256.43,286,257l1.55.56v.58l-2.21-.84v-.61l2.21-.84Z" style="fill: #7E57C2; transform-origin: 286.455px 256.995px;" id="elgv4zp3fxveh" class="animable"/>
        <path d="M289.22,254.71h.65l-1.53,4.37h-.65Z" style="fill: #7E57C2; transform-origin: 288.78px 256.895px;" id="els0flfkp87j" class="animable"/>
        <path d="M293,255.37v3.25h-.76v-1.33H290.8v1.33h-.75v-3.25h.75v1.28h1.47v-1.28Z" style="fill: #7E57C2; transform-origin: 291.525px 256.995px;" id="el7zd59nhfoe3" class="animable"/>
        <path d="M294.46,256h-1v-.61h2.82V256h-1v2.64h-.76Z" style="fill: #7E57C2; transform-origin: 294.87px 257.015px;" id="eleeqqkwvltqm" class="animable"/>
        <path d="M299.61,258.62v-1.95l-1,1.61h-.34l-.95-1.57v1.91h-.7v-3.25h.62l1.21,2,1.2-2h.62v3.25Z" style="fill: #7E57C2; transform-origin: 298.445px 256.995px;" id="elattuftot28e" class="animable"/>
        <path d="M301.08,255.37h.75V258h1.63v.61h-2.38Z" style="fill: #7E57C2; transform-origin: 302.27px 256.99px;" id="el6phy0big3am" class="animable"/>
        <path d="M306,256.69v.61l-2.21.84v-.58l1.55-.56-1.55-.57v-.58Z" style="fill: #7E57C2; transform-origin: 304.895px 256.995px;" id="elgecwym35gw" class="animable"/>
        <path d="M299.07,176.44l-1.65.63,1.65.64v.38l-2.08-.82v-.4l2.08-.82Z" id="elp2603rwznj8" class="animable" style="transform-origin: 298.03px 177.07px;"/>
        <path d="M302.65,175.45v3.25h-.46v-1.45h-1.86v1.45h-.47v-3.25h.47v1.4h1.86v-1.4Z" id="el1uhe50irk72" class="animable" style="transform-origin: 301.255px 177.075px;"/>
        <path d="M306,178.29v.41h-2.36v-3.25h2.3v.4h-1.83v1h1.63v.39h-1.63v1Z" id="elwytyw5zwdhn" class="animable" style="transform-origin: 304.82px 177.075px;"/>
        <path d="M308.8,177.88h-1.73l-.35.82h-.48l1.47-3.25h.46l1.47,3.25h-.49Zm-.16-.37-.7-1.59-.71,1.59Z" id="eljfc64lltus" class="animable" style="transform-origin: 307.94px 177.075px;"/>
        <path d="M310.12,175.45h1.37a1.63,1.63,0,1,1,0,3.25h-1.37Zm1.34,2.84a1.22,1.22,0,1,0,0-2.44h-.88v2.44Z" id="eltxtufn289df" class="animable" style="transform-origin: 311.684px 177.075px;"/>
        <path d="M315.85,176.87v.4l-2.08.82v-.38l1.65-.64-1.65-.63v-.39Z" id="elnbl7nbak797" class="animable" style="transform-origin: 314.81px 177.07px;"/>
        <path d="M299.07,187.56l-1.65.63,1.65.64v.38l-2.08-.82V188l2.08-.82Z" id="eldohcoredpwn" class="animable" style="transform-origin: 298.03px 188.195px;"/>
        <path d="M300.51,187h-1.12v-.4h2.69v.4H301v2.85h-.46Z" id="el5dz2wy2zbzd" class="animable" style="transform-origin: 300.735px 188.225px;"/>
        <path d="M302.58,186.57h.47v3.25h-.47Z" id="elmrpcrk3de3" class="animable" style="transform-origin: 302.815px 188.195px;"/>
        <path d="M304.66,187h-1.11v-.4h2.68v.4h-1.11v2.85h-.46Z" id="elotxdx75iyto" class="animable" style="transform-origin: 304.89px 188.225px;"/>
        <path d="M306.74,186.57h.46v2.84H309v.41h-2.22Z" id="el18i1gvdhswr" class="animable" style="transform-origin: 307.87px 188.195px;"/>
        <path d="M311.85,189.41v.41h-2.36v-3.25h2.29v.4H310v1h1.63v.4H310v1Z" id="eljopbz0jh8hs" class="animable" style="transform-origin: 310.67px 188.195px;"/>
        <path d="M314.5,188v.4l-2.08.82v-.38l1.65-.64-1.65-.63v-.39Z" id="elufccyrs0hdf" class="animable" style="transform-origin: 313.46px 188.2px;"/>
        <path d="M316.54,186.57H317v2.84h1.76v.41h-2.22Z" id="elztml0q3b5lk" class="animable" style="transform-origin: 317.65px 188.195px;"/>
        <path d="M319,188.59a1.28,1.28,0,1,1,1.28,1.26A1.22,1.22,0,0,1,319,188.59Zm2.1,0a.83.83,0,1,0-1.65,0,.83.83,0,1,0,1.65,0Z" id="elgxzjichqupg" class="animable" style="transform-origin: 320.28px 188.571px;"/>
        <path d="M323.46,187.34v.43h-.1a.74.74,0,0,0-.78.83v1.23h-.44v-2.46h.42v.41A.94.94,0,0,1,323.46,187.34Z" id="elpwbuv0gdx8o" class="animable" style="transform-origin: 322.8px 188.582px;"/>
        <path d="M326.19,188.74h-2a.83.83,0,0,0,.89.72.91.91,0,0,0,.71-.3l.24.29a1.34,1.34,0,0,1-2.29-.86,1.21,1.21,0,0,1,1.24-1.25,1.18,1.18,0,0,1,1.21,1.26A.66.66,0,0,1,326.19,188.74Zm-2-.32h1.58a.79.79,0,0,0-1.58,0Z" id="el982oi5a63h" class="animable" style="transform-origin: 324.967px 188.594px;"/>
        <path d="M330.9,188.4v1.42h-.45v-1.37c0-.48-.23-.71-.63-.71a.71.71,0,0,0-.74.81v1.27h-.45v-1.37c0-.48-.23-.71-.63-.71a.71.71,0,0,0-.74.81v1.27h-.44v-2.46h.42v.37a1,1,0,0,1,.85-.39.91.91,0,0,1,.86.45,1.08,1.08,0,0,1,.94-.45A.94.94,0,0,1,330.9,188.4Z" id="ellquosmf80m" class="animable" style="transform-origin: 328.864px 188.578px;"/>
        <path d="M332.88,186.6a.29.29,0,0,1,.3-.29.28.28,0,0,1,.3.28.29.29,0,0,1-.3.3A.29.29,0,0,1,332.88,186.6Zm.08.76h.45v2.46H333Z" id="el4iav1cc1y1j" class="animable" style="transform-origin: 333.18px 188.065px;"/>
        <path d="M336.8,188.59a1.2,1.2,0,0,1-1.24,1.26,1.06,1.06,0,0,1-.86-.4v1.27h-.45v-3.36h.43v.39a1.06,1.06,0,0,1,.88-.41A1.19,1.19,0,0,1,336.8,188.59Zm-.45,0a.83.83,0,1,0-1.66,0,.83.83,0,1,0,1.66,0Z" id="el5b1lz9sxo4p" class="animable" style="transform-origin: 335.526px 189.029px;"/>
        <path d="M337.1,189.56l.19-.35a1.65,1.65,0,0,0,.86.25c.41,0,.59-.12.59-.33,0-.56-1.56-.08-1.56-1.06,0-.44.4-.73,1-.73a1.75,1.75,0,0,1,.89.22l-.19.35a1.31,1.31,0,0,0-.71-.19c-.39,0-.58.14-.58.34,0,.57,1.56.1,1.56,1.06,0,.44-.41.73-1.06.73A1.82,1.82,0,0,1,337.1,189.56Z" id="elsur0izw2a0j" class="animable" style="transform-origin: 338.125px 188.595px;"/>
        <path d="M342,187.36v2.46h-.42v-.37a1,1,0,0,1-.84.4,1,1,0,0,1-1.06-1.08v-1.41h.45v1.36c0,.49.24.73.66.73a.72.72,0,0,0,.76-.82v-1.27Z" id="elj3rnf0i950f" class="animable" style="transform-origin: 340.838px 188.606px;"/>
        <path d="M347,188.4v1.42h-.44v-1.37c0-.48-.23-.71-.64-.71a.71.71,0,0,0-.73.81v1.27h-.45v-1.37c0-.48-.23-.71-.63-.71a.71.71,0,0,0-.74.81v1.27h-.45v-2.46h.43v.37a1,1,0,0,1,.85-.39.9.9,0,0,1,.85.45,1.11,1.11,0,0,1,.95-.45A.93.93,0,0,1,347,188.4Z" id="elv1lkjkseh0s" class="animable" style="transform-origin: 344.965px 188.578px;"/>
        <path d="M351,187.56l-1.64.63,1.64.64v.38l-2.07-.82V188l2.07-.82Z" id="eljf62k33hjoq" class="animable" style="transform-origin: 349.965px 188.195px;"/>
        <path d="M352.69,185.91h.41l-1.53,4.37h-.41Z" id="el12l9o7walb5f" class="animable" style="transform-origin: 352.13px 188.095px;"/>
        <path d="M354.19,187h-1.11v-.4h2.69v.4h-1.12v2.85h-.46Z" id="el1nylya30ong" class="animable" style="transform-origin: 354.425px 188.225px;"/>
        <path d="M356.27,186.57h.46v3.25h-.46Z" id="el0g4gkwq3vg59" class="animable" style="transform-origin: 356.5px 188.195px;"/>
        <path d="M358.35,187h-1.11v-.4h2.68v.4h-1.11v2.85h-.46Z" id="elkn0zmhsou89" class="animable" style="transform-origin: 358.58px 188.225px;"/>
        <path d="M360.43,186.57h.46v2.84h1.76v.41h-2.22Z" id="elm61yjqrid8p" class="animable" style="transform-origin: 361.54px 188.195px;"/>
        <path d="M365.54,189.41v.41h-2.36v-3.25h2.29v.4h-1.83v1h1.63v.4h-1.63v1Z" id="elkttp5tun0e9" class="animable" style="transform-origin: 364.36px 188.195px;"/>
        <path d="M368.19,188v.4l-2.08.82v-.38l1.65-.64-1.65-.63v-.39Z" id="ele2hc82q4y8w" class="animable" style="transform-origin: 367.15px 188.2px;"/>
        <path d="M299.07,198.68l-1.65.64,1.65.63v.39l-2.08-.83v-.39l2.08-.83Z" id="elv1lz2sxqg9k" class="animable" style="transform-origin: 298.03px 199.315px;"/>
        <path d="M300.78,197h.4l-1.53,4.37h-.41Z" id="elto0ufyh4c0m" class="animable" style="transform-origin: 300.21px 199.185px;"/>
        <path d="M304.28,197.69v3.25h-.46v-1.45H302v1.45h-.47v-3.25H302v1.4h1.86v-1.4Z" id="el5eu78e0vxm" class="animable" style="transform-origin: 302.905px 199.315px;"/>
        <path d="M307.61,200.53v.41h-2.35v-3.25h2.29v.41h-1.83v1h1.63v.4h-1.63v1Z" id="elyjb3zal7mzm" class="animable" style="transform-origin: 306.435px 199.315px;"/>
        <path d="M310.43,200.13H308.7l-.35.81h-.48l1.47-3.25h.46l1.47,3.25h-.48Zm-.16-.37-.7-1.6-.7,1.6Z" id="elxbd6ea199pa" class="animable" style="transform-origin: 309.57px 199.315px;"/>
        <path d="M311.75,197.69h1.37a1.63,1.63,0,1,1,0,3.25h-1.37Zm1.34,2.84a1.22,1.22,0,1,0,0-2.43h-.87v2.43Z" id="el8buk4h6f4ml" class="animable" style="transform-origin: 313.314px 199.315px;"/>
        <path d="M317.48,199.12v.39l-2.08.83V200l1.65-.63-1.65-.64v-.39Z" id="elicvphtdb0eb" class="animable" style="transform-origin: 316.44px 199.34px;"/>
        <path d="M290.45,208.33l-1.64.64,1.64.63V210l-2.08-.82v-.4l2.08-.82Z" id="el7ibmukfkc8h" class="animable" style="transform-origin: 289.41px 208.98px;"/>
        <path d="M294,209.71c0,.56-.42.88-1.24.88h-1.55v-3.25h1.45c.75,0,1.17.32,1.17.84a.83.83,0,0,0,.17,1.53Zm-2.33-2v1h1c.48,0,.74-.18.74-.52s-.26-.52-.74-.52Zm1.86,2c0-.38-.28-.55-.79-.55h-1.07v1.08h1.07C293.29,210.21,293.57,210.05,293.57,209.68Z" id="elcz8qrl3gl5a" class="animable" style="transform-origin: 292.605px 208.965px;"/>
        <path d="M294.49,209a1.73,1.73,0,1,1,1.73,1.66A1.65,1.65,0,0,1,294.49,209Zm3,0a1.27,1.27,0,1,0-1.26,1.24A1.22,1.22,0,0,0,297.48,209Z" id="el1n3mgs1ozx3" class="animable" style="transform-origin: 296.219px 208.931px;"/>
        <path d="M298.65,207.34H300a1.63,1.63,0,1,1,0,3.25h-1.37Zm1.34,2.85a1.22,1.22,0,1,0,0-2.44h-.88v2.44Z" id="ela7k6wct6hve" class="animable" style="transform-origin: 300.194px 208.965px;"/>
        <path d="M303.58,209.47v1.12h-.46v-1.13l-1.29-2.12h.5l1,1.72,1-1.72h.46Z" id="el227uqwoyiyo" class="animable" style="transform-origin: 303.31px 208.965px;"/>
        <path d="M307.24,208.77v.4l-2.08.82v-.39l1.65-.63-1.65-.64V208Z" id="el3nbc7z9qwio" class="animable" style="transform-origin: 306.2px 208.995px;"/>
        <path d="M290.45,219.45l-1.64.64,1.64.63v.39l-2.08-.82v-.4l2.08-.82Z" id="el9dv0xgf1rfn" class="animable" style="transform-origin: 289.41px 220.09px;"/>
        <path d="M294,218.47v3.24h-.46v-1.44h-1.87v1.44h-.46v-3.24h.46v1.39h1.87v-1.39Z" id="elnf04fun8m4" class="animable" style="transform-origin: 292.605px 220.09px;"/>
        <path d="M295.75,218.47v3.24h-.46v-2.84h-.73v-.4Z" id="elt2c73gyo1gc" class="animable" style="transform-origin: 295.155px 220.09px;"/>
        <path d="M298.63,219.89v.4l-2.08.82v-.39l1.65-.63-1.65-.64v-.38Z" id="eli0955hsbax" class="animable" style="transform-origin: 297.59px 220.09px;"/>
        <path d="M300.71,218.47h.34v2.95h1.82v.29h-2.16Z" id="elf7py8v0pcbd" class="animable" style="transform-origin: 301.79px 220.09px;"/>
        <path d="M303.09,220.49a1.24,1.24,0,1,1,1.24,1.25A1.2,1.2,0,0,1,303.09,220.49Zm2.14,0a.91.91,0,1,0-.9.95A.89.89,0,0,0,305.23,220.49Z" id="elrjl89sue9ro" class="animable" style="transform-origin: 304.329px 220.5px;"/>
        <path d="M307.47,219.25v.32h-.08a.79.79,0,0,0-.82.9v1.24h-.33v-2.44h.31v.48A1,1,0,0,1,307.47,219.25Z" id="elilbum0sc8v" class="animable" style="transform-origin: 306.855px 220.479px;"/>
        <path d="M310.16,220.59h-2a.91.91,0,0,0,1,.85,1,1,0,0,0,.75-.32l.18.22a1.19,1.19,0,0,1-.94.4,1.21,1.21,0,0,1-1.28-1.25,1.18,1.18,0,0,1,1.19-1.24,1.16,1.16,0,0,1,1.18,1.24Zm-2-.24h1.73a.87.87,0,0,0-1.73,0Z" id="el0gq1p5rkbr5" class="animable" style="transform-origin: 309.056px 220.496px;"/>
        <path d="M314.86,220.3v1.41h-.33v-1.38c0-.51-.26-.78-.7-.78a.78.78,0,0,0-.81.88v1.28h-.33v-1.38c0-.51-.26-.78-.71-.78a.79.79,0,0,0-.82.88v1.28h-.33v-2.44h.32v.45a1,1,0,0,1,.9-.47.88.88,0,0,1,.86.52,1.07,1.07,0,0,1,1-.52A.93.93,0,0,1,314.86,220.3Z" id="elw09bkgn9v7" class="animable" style="transform-origin: 312.849px 220.478px;"/>
        <path d="M316.89,218.5a.24.24,0,0,1,.24-.23.23.23,0,0,1,.24.23.24.24,0,0,1-.24.24A.24.24,0,0,1,316.89,218.5Zm.07.77h.33v2.44H317Z" id="elzxxn7e3is5d" class="animable" style="transform-origin: 317.13px 219.99px;"/>
        <path d="M320.68,220.49a1.19,1.19,0,0,1-1.21,1.25,1.06,1.06,0,0,1-.93-.49v1.36h-.33v-3.34h.32v.48a1.07,1.07,0,0,1,.94-.5A1.18,1.18,0,0,1,320.68,220.49Zm-.32,0a.91.91,0,1,0-1.82,0,.91.91,0,1,0,1.82,0Z" id="elicsf7ve1sr9" class="animable" style="transform-origin: 319.446px 220.93px;"/>
        <path d="M321,221.43l.15-.26a1.46,1.46,0,0,0,.87.28c.46,0,.65-.16.65-.4,0-.64-1.58-.14-1.58-1.1,0-.4.35-.7,1-.7a1.64,1.64,0,0,1,.86.23l-.14.27a1.26,1.26,0,0,0-.72-.21c-.44,0-.64.17-.64.4,0,.66,1.58.16,1.58,1.1,0,.42-.37.7-1,.7A1.59,1.59,0,0,1,321,221.43Z" id="elvsjpqpnkfmi" class="animable" style="transform-origin: 322.015px 220.496px;"/>
        <path d="M325.82,219.27v2.44h-.32v-.44a1,1,0,0,1-.87.47.94.94,0,0,1-1-1.05v-1.42h.33v1.38c0,.52.26.79.73.79a.79.79,0,0,0,.83-.89v-1.28Z" id="elcatfitcpznf" class="animable" style="transform-origin: 324.722px 220.506px;"/>
        <path d="M330.76,220.3v1.41h-.32v-1.38c0-.51-.26-.78-.71-.78a.78.78,0,0,0-.81.88v1.28h-.33v-1.38c0-.51-.26-.78-.71-.78a.79.79,0,0,0-.81.88v1.28h-.33v-2.44h.31v.45a1,1,0,0,1,.9-.47.89.89,0,0,1,.87.52,1,1,0,0,1,1-.52A.93.93,0,0,1,330.76,220.3Z" id="elzar7czrqhy9" class="animable" style="transform-origin: 328.754px 220.476px;"/>
        <path d="M335.09,218.27v3.44h-.31v-.48a1.06,1.06,0,0,1-.94.51,1.25,1.25,0,0,1,0-2.49,1.07,1.07,0,0,1,.93.49v-1.47Zm-.32,2.22a.91.91,0,1,0-.9.95A.89.89,0,0,0,334.77,220.49Z" id="el8m07zzbelb9" class="animable" style="transform-origin: 333.896px 220.005px;"/>
        <path d="M335.76,220.49a1.25,1.25,0,1,1,1.25,1.25A1.21,1.21,0,0,1,335.76,220.49Zm2.15,0a.91.91,0,1,0-.9.95A.89.89,0,0,0,337.91,220.49Z" id="elvq4k93zco" class="animable" style="transform-origin: 337.01px 220.49px;"/>
        <path d="M338.92,218.27h.32v3.44h-.32Z" id="elal81ri6ap2s" class="animable" style="transform-origin: 339.08px 219.99px;"/>
        <path d="M339.92,220.49a1.24,1.24,0,1,1,1.24,1.25A1.2,1.2,0,0,1,339.92,220.49Zm2.14,0a.91.91,0,1,0-.9.95A.89.89,0,0,0,342.06,220.49Z" id="eluym5yi2mz4" class="animable" style="transform-origin: 341.159px 220.5px;"/>
        <path d="M344.3,219.25v.32h-.08a.79.79,0,0,0-.82.9v1.24h-.33v-2.44h.31v.48A1,1,0,0,1,344.3,219.25Z" id="elndgl84ihufe" class="animable" style="transform-origin: 343.685px 220.479px;"/>
        <path d="M345.8,221.43l.15-.26a1.41,1.41,0,0,0,.87.28c.46,0,.65-.16.65-.4,0-.64-1.58-.14-1.58-1.1,0-.4.34-.7,1-.7a1.68,1.68,0,0,1,.87.23l-.15.27a1.24,1.24,0,0,0-.72-.21c-.44,0-.63.17-.63.4,0,.66,1.58.16,1.58,1.1,0,.42-.37.7-1,.7A1.58,1.58,0,0,1,345.8,221.43Z" id="elp5dnkpul1jl" class="animable" style="transform-origin: 346.82px 220.496px;"/>
        <path d="M348.33,218.5a.24.24,0,0,1,.24-.23.23.23,0,0,1,.24.23.24.24,0,0,1-.24.24A.24.24,0,0,1,348.33,218.5Zm.08.77h.32v2.44h-.32Z" id="el7zu265tn9jw" class="animable" style="transform-origin: 348.57px 219.99px;"/>
        <path d="M350.94,221.56a.78.78,0,0,1-.52.18.64.64,0,0,1-.71-.71v-1.48h-.44v-.28h.44v-.53H350v.53h.74v.28H350V221a.39.39,0,0,0,.42.44.56.56,0,0,0,.36-.12Z" id="elcctzebzadxe" class="animable" style="transform-origin: 350.105px 220.242px;"/>
        <path d="M354.59,220.2v1.51h-.32v-.38a.9.9,0,0,1-.84.41c-.55,0-.89-.29-.89-.71s.24-.7.94-.7h.78v-.14a.6.6,0,0,0-.69-.65,1.21,1.21,0,0,0-.81.29l-.15-.25a1.53,1.53,0,0,1,1-.33A.87.87,0,0,1,354.59,220.2Zm-.33.78v-.4h-.77c-.47,0-.62.19-.62.44s.23.46.61.46A.78.78,0,0,0,354.26,221Z" id="elpz4yhhowzll" class="animable" style="transform-origin: 353.567px 220.493px;"/>
        <path d="M359.51,220.3v1.41h-.33v-1.38c0-.51-.26-.78-.7-.78a.79.79,0,0,0-.82.88v1.28h-.33v-1.38c0-.51-.26-.78-.7-.78a.79.79,0,0,0-.82.88v1.28h-.33v-2.44h.32v.45a1,1,0,0,1,.89-.47.88.88,0,0,1,.87.52,1.05,1.05,0,0,1,1-.52A.93.93,0,0,1,359.51,220.3Z" id="eliiktuazgwza" class="animable" style="transform-origin: 357.499px 220.478px;"/>
        <path d="M362.53,220.59h-2a.91.91,0,0,0,1,.85,1,1,0,0,0,.75-.32l.18.22a1.19,1.19,0,0,1-.94.4,1.21,1.21,0,0,1-1.28-1.25,1.19,1.19,0,1,1,2.38,0S362.53,220.56,362.53,220.59Zm-2-.24h1.73a.87.87,0,0,0-1.73,0Z" id="elpdw7z8612t" class="animable" style="transform-origin: 361.43px 220.521px;"/>
        <path d="M364.49,221.56a.76.76,0,0,1-.51.18.65.65,0,0,1-.72-.71v-1.48h-.43v-.28h.43v-.53h.33v.53h.74v.28h-.74V221a.39.39,0,0,0,.42.44.54.54,0,0,0,.36-.12Z" id="els4u8hv4ho6" class="animable" style="transform-origin: 363.66px 220.242px;"/>
        <path d="M365.42,221.48a.71.71,0,0,1-.07.27l-.19.64h-.23l.16-.67a.24.24,0,0,1-.17-.24.25.25,0,0,1,.25-.25A.24.24,0,0,1,365.42,221.48Z" id="elsaimjcuvbro" class="animable" style="transform-origin: 365.17px 221.81px;"/>
        <path d="M367.08,220.49a1.2,1.2,0,0,1,1.26-1.24,1.09,1.09,0,0,1,1,.49l-.25.16a.83.83,0,0,0-.71-.36,1,1,0,0,0,0,1.9.82.82,0,0,0,.71-.35l.25.16a1.09,1.09,0,0,1-1,.49A1.21,1.21,0,0,1,367.08,220.49Z" id="elav101ajabg" class="animable" style="transform-origin: 368.21px 220.495px;"/>
        <path d="M369.65,220.49a1.24,1.24,0,1,1,1.25,1.25A1.21,1.21,0,0,1,369.65,220.49Zm2.15,0a.89.89,0,0,0-.9-1,1,1,0,0,0,0,1.9A.89.89,0,0,0,371.8,220.49Z" id="el912d3zvshre" class="animable" style="transform-origin: 370.89px 220.5px;"/>
        <path d="M375.05,220.3v1.41h-.33v-1.38a.68.68,0,0,0-.73-.78.8.8,0,0,0-.86.88v1.28h-.33v-2.44h.32v.45a1,1,0,0,1,.93-.47A.94.94,0,0,1,375.05,220.3Z" id="el36ht6jk7xzr" class="animable" style="transform-origin: 373.928px 220.478px;"/>
        <path d="M375.6,221.43l.15-.26a1.41,1.41,0,0,0,.87.28c.46,0,.65-.16.65-.4,0-.64-1.58-.14-1.58-1.1,0-.4.34-.7,1-.7a1.68,1.68,0,0,1,.87.23l-.15.27a1.24,1.24,0,0,0-.72-.21c-.44,0-.63.17-.63.4,0,.66,1.58.16,1.58,1.1,0,.42-.37.7-1,.7A1.58,1.58,0,0,1,375.6,221.43Z" id="el78ogx7ktrra" class="animable" style="transform-origin: 376.62px 220.496px;"/>
        <path d="M380.33,220.59h-2a.91.91,0,0,0,1,.85,1,1,0,0,0,.75-.32l.18.22a1.19,1.19,0,0,1-.94.4,1.21,1.21,0,0,1-1.28-1.25,1.18,1.18,0,0,1,1.19-1.24,1.16,1.16,0,0,1,1.18,1.24Zm-2-.24H380a.87.87,0,0,0-1.73,0Z" id="elpg9unmxx5ti" class="animable" style="transform-origin: 379.226px 220.496px;"/>
        <path d="M380.76,220.49a1.2,1.2,0,0,1,1.26-1.24,1.06,1.06,0,0,1,1,.49l-.24.16a.85.85,0,0,0-.71-.36,1,1,0,0,0,0,1.9.84.84,0,0,0,.71-.35l.24.16a1.06,1.06,0,0,1-1,.49A1.21,1.21,0,0,1,380.76,220.49Z" id="el0quv5rut01tn" class="animable" style="transform-origin: 381.89px 220.495px;"/>
        <path d="M384.93,221.56a.78.78,0,0,1-.52.18.64.64,0,0,1-.71-.71v-1.48h-.44v-.28h.44v-.53H384v.53h.74v.28H384V221a.39.39,0,0,0,.42.44.56.56,0,0,0,.36-.12Z" id="elyjtysqkeiih" class="animable" style="transform-origin: 384.095px 220.242px;"/>
        <path d="M387.56,220.59h-2a.91.91,0,0,0,1,.85,1,1,0,0,0,.75-.32l.18.22a1.19,1.19,0,0,1-.94.4,1.21,1.21,0,0,1-1.28-1.25,1.19,1.19,0,1,1,2.38,0S387.56,220.56,387.56,220.59Zm-2-.24h1.73a.87.87,0,0,0-1.73,0Z" id="eln1u0uufw1a9" class="animable" style="transform-origin: 386.46px 220.521px;"/>
        <path d="M389.52,221.56a.78.78,0,0,1-.52.18.65.65,0,0,1-.71-.71v-1.48h-.44v-.28h.44v-.53h.33v.53h.74v.28h-.74V221a.39.39,0,0,0,.42.44.54.54,0,0,0,.36-.12Z" id="elazofzso3xnt" class="animable" style="transform-origin: 388.685px 220.242px;"/>
        <path d="M392.31,219.27v2.44H392v-.44a1,1,0,0,1-.88.47,1,1,0,0,1-1-1.05v-1.42h.33v1.38c0,.52.27.79.73.79a.79.79,0,0,0,.83-.89v-1.28Z" id="elxpvryv0nwa" class="animable" style="transform-origin: 391.214px 220.505px;"/>
        <path d="M395.36,220.59h-2a.9.9,0,0,0,1,.85.93.93,0,0,0,.74-.32l.19.22a1.29,1.29,0,0,1-2.22-.85,1.17,1.17,0,0,1,1.19-1.24,1.16,1.16,0,0,1,1.18,1.24Zm-2-.24h1.73a.87.87,0,0,0-1.73,0Z" id="elgcevv8lmist" class="animable" style="transform-origin: 394.255px 220.493px;"/>
        <path d="M397.26,219.25v.32h-.08a.79.79,0,0,0-.82.9v1.24H396v-2.44h.32v.48A.92.92,0,0,1,397.26,219.25Z" id="elz91jgzmcpgf" class="animable" style="transform-origin: 396.63px 220.476px;"/>
        <path d="M290.36,225.76v1.51h-.31v-.38a.93.93,0,0,1-.84.41c-.55,0-.89-.29-.89-.71s.24-.69.94-.69H290v-.15c0-.42-.23-.65-.69-.65a1.23,1.23,0,0,0-.81.29l-.15-.25a1.56,1.56,0,0,1,1-.33A.86.86,0,0,1,290.36,225.76Zm-.33.78v-.4h-.76c-.47,0-.63.19-.63.44s.23.46.62.46A.78.78,0,0,0,290,226.54Z" id="elp1w8z2h7b4g" class="animable" style="transform-origin: 289.343px 226.049px;"/>
        <path d="M293.49,223.83v3.44h-.31v-.48a1.07,1.07,0,0,1-.95.51,1.25,1.25,0,0,1,0-2.49,1.06,1.06,0,0,1,.93.49v-1.47Zm-.32,2.22a.91.91,0,1,0-.91.95A.89.89,0,0,0,293.17,226.05Z" id="elq75q15dktit" class="animable" style="transform-origin: 292.291px 225.565px;"/>
        <path d="M294.33,224.06a.24.24,0,0,1,.24-.23.24.24,0,0,1,.25.23.25.25,0,0,1-.49,0Zm.08.77h.33v2.44h-.33Z" id="elise10bi1p3" class="animable" style="transform-origin: 294.575px 225.55px;"/>
        <path d="M298.13,226.05a1.19,1.19,0,0,1-1.22,1.25,1.07,1.07,0,0,1-.93-.49v1.36h-.33v-3.34H296v.49a1.06,1.06,0,0,1,.94-.51A1.19,1.19,0,0,1,298.13,226.05Zm-.33,0a.91.91,0,1,0-1.82,0,.91.91,0,1,0,1.82,0Z" id="el990na3bn7jo" class="animable" style="transform-origin: 296.891px 226.49px;"/>
        <path d="M298.72,224.06a.24.24,0,0,1,.24-.23.23.23,0,0,1,.24.23.24.24,0,0,1-.24.24A.24.24,0,0,1,298.72,224.06Zm.08.77h.33v2.44h-.33Z" id="el0n8gbaeili6" class="animable" style="transform-origin: 298.96px 225.55px;"/>
        <path d="M299.7,227l.15-.26a1.46,1.46,0,0,0,.87.28c.46,0,.65-.16.65-.4,0-.64-1.58-.14-1.58-1.1,0-.4.34-.7,1-.7a1.67,1.67,0,0,1,.86.23l-.14.27a1.26,1.26,0,0,0-.72-.21c-.44,0-.64.17-.64.4,0,.66,1.58.16,1.58,1.1,0,.42-.37.7-1,.7A1.59,1.59,0,0,1,299.7,227Z" id="elvqc647ga35d" class="animable" style="transform-origin: 300.715px 226.066px;"/>
        <path d="M302.06,226.05a1.2,1.2,0,0,1,1.26-1.24,1.09,1.09,0,0,1,1,.49l-.25.16a.85.85,0,0,0-.71-.36,1,1,0,0,0,0,1.9.84.84,0,0,0,.71-.35l.25.16a1.09,1.09,0,0,1-1,.49A1.21,1.21,0,0,1,302.06,226.05Z" id="elppixqe8riw" class="animable" style="transform-origin: 303.19px 226.055px;"/>
        <path d="M304.84,224.06a.24.24,0,0,1,.24-.23.23.23,0,0,1,.24.23.24.24,0,0,1-.24.24A.24.24,0,0,1,304.84,224.06Zm.08.77h.33v2.44h-.33Z" id="elzl6yaf6t33" class="animable" style="transform-origin: 305.08px 225.55px;"/>
        <path d="M308.41,225.86v1.41h-.33v-1.38a.68.68,0,0,0-.73-.78.8.8,0,0,0-.86.88v1.28h-.33v-2.44h.32v.45a1,1,0,0,1,.93-.47A.94.94,0,0,1,308.41,225.86Z" id="elzwnxgro5gb" class="animable" style="transform-origin: 307.288px 226.038px;"/>
        <path d="M311.57,224.83V227a1.07,1.07,0,0,1-1.22,1.22,1.72,1.72,0,0,1-1.14-.38l.17-.25a1.43,1.43,0,0,0,1,.33c.62,0,.9-.28.9-.88v-.31a1.1,1.1,0,0,1-.95.47,1.19,1.19,0,1,1,0-2.37,1.09,1.09,0,0,1,1,.49v-.47Zm-.32,1.16a.93.93,0,1,0-.93.9A.87.87,0,0,0,311.25,226Z" id="eltdrcpzxpuze" class="animable" style="transform-origin: 310.307px 226.529px;"/>
        <path d="M315.83,226.16h-2a.89.89,0,0,0,1,.84.93.93,0,0,0,.74-.32l.19.22a1.29,1.29,0,0,1-2.22-.85,1.17,1.17,0,0,1,1.19-1.24,1.16,1.16,0,0,1,1.18,1.24Zm-2-.25h1.73a.87.87,0,0,0-1.73,0Z" id="el6sb7ji5wsvl" class="animable" style="transform-origin: 314.725px 226.053px;"/>
        <path d="M316.5,223.83h.33v3.44h-.33Z" id="el78guhyjge7m" class="animable" style="transform-origin: 316.665px 225.55px;"/>
        <path d="M317.67,224.06a.24.24,0,0,1,.24-.23.24.24,0,0,1,.25.23.25.25,0,0,1-.49,0Zm.08.77h.33v2.44h-.33Z" id="el51iok20rsq" class="animable" style="transform-origin: 317.915px 225.55px;"/>
        <path d="M320.28,227.12a.76.76,0,0,1-.51.18.65.65,0,0,1-.72-.71v-1.48h-.44v-.28h.44v-.53h.33v.53h.74v.28h-.74v1.46a.39.39,0,0,0,.42.44.54.54,0,0,0,.36-.12Z" id="el1f6unarrhox" class="animable" style="transform-origin: 319.445px 225.802px;"/>
        <path d="M321.2,227a.66.66,0,0,1-.06.27l-.2.64h-.22l.16-.67a.24.24,0,0,1-.17-.24.25.25,0,0,1,.25-.25A.24.24,0,0,1,321.2,227Z" id="eldafatjiqbjc" class="animable" style="transform-origin: 320.955px 227.33px;"/>
        <path d="M322.78,227l.15-.26a1.41,1.41,0,0,0,.87.28c.46,0,.65-.16.65-.4,0-.64-1.58-.14-1.58-1.1,0-.4.34-.7,1-.7a1.68,1.68,0,0,1,.87.23l-.15.27a1.24,1.24,0,0,0-.72-.21c-.44,0-.63.17-.63.4,0,.66,1.58.16,1.58,1.1,0,.42-.37.7-1,.7A1.58,1.58,0,0,1,322.78,227Z" id="elju20ixhtp3l" class="animable" style="transform-origin: 323.8px 226.066px;"/>
        <path d="M327.51,226.16h-2a.91.91,0,0,0,1,.84,1,1,0,0,0,.75-.32l.18.22a1.29,1.29,0,0,1-2.22-.85,1.17,1.17,0,0,1,1.19-1.24,1.16,1.16,0,0,1,1.18,1.24Zm-2-.25h1.73a.87.87,0,0,0-1.73,0Z" id="elr5f3c3go24j" class="animable" style="transform-origin: 326.405px 226.053px;"/>
        <path d="M330.41,223.83v3.44h-.32v-.48a1,1,0,0,1-.94.51,1.25,1.25,0,0,1,0-2.49,1.06,1.06,0,0,1,.93.49v-1.47Zm-.32,2.22a.91.91,0,1,0-.91.95A.89.89,0,0,0,330.09,226.05Z" id="elr83rr9qmu2q" class="animable" style="transform-origin: 329.211px 225.566px;"/>
        <path d="M334.77,223.83v3.44h-.32v-.48a1.06,1.06,0,0,1-.94.51,1.25,1.25,0,0,1,0-2.49,1.07,1.07,0,0,1,.93.49v-1.47Zm-.33,2.22a.91.91,0,1,0-.9.95A.89.89,0,0,0,334.44,226.05Z" id="elpcoitzvvtyp" class="animable" style="transform-origin: 333.571px 225.565px;"/>
        <path d="M335.61,224.06a.24.24,0,1,1,.24.24A.23.23,0,0,1,335.61,224.06Zm.07.77H336v2.44h-.33Z" id="elgyopo2274ob" class="animable" style="transform-origin: 335.85px 225.545px;"/>
        <path d="M338.77,225.76v1.51h-.32v-.38a.9.9,0,0,1-.84.41c-.55,0-.89-.29-.89-.71s.24-.69.94-.69h.78v-.15a.6.6,0,0,0-.69-.65,1.21,1.21,0,0,0-.81.29l-.15-.25a1.53,1.53,0,0,1,1-.33A.87.87,0,0,1,338.77,225.76Zm-.33.78v-.4h-.77c-.47,0-.62.19-.62.44s.23.46.61.46A.78.78,0,0,0,338.44,226.54Z" id="el48aqzfaeh9x" class="animable" style="transform-origin: 337.747px 226.053px;"/>
        <path d="M343.69,225.86v1.41h-.33v-1.38c0-.51-.26-.78-.7-.78a.79.79,0,0,0-.82.88v1.28h-.33v-1.38c0-.51-.26-.78-.7-.78a.79.79,0,0,0-.82.88v1.28h-.33v-2.44H340v.45a1,1,0,0,1,.89-.47.88.88,0,0,1,.87.52,1.05,1.05,0,0,1,1-.52A.93.93,0,0,1,343.69,225.86Z" id="elxxjia4ftas" class="animable" style="transform-origin: 341.679px 226.038px;"/>
        <path d="M346.51,225l-1.65.64,1.65.63v.39l-2.08-.82v-.4l2.08-.82Z" id="el48e1ca5rs4v" class="animable" style="transform-origin: 345.47px 225.64px;"/>
        <path d="M348.22,223.37h.4l-1.53,4.37h-.4Z" id="el1yz2x676qro" class="animable" style="transform-origin: 347.655px 225.555px;"/>
        <path d="M351.73,224v3.24h-.47v-1.44H349.4v1.44h-.47V224h.47v1.39h1.86V224Z" id="eltswd8n98bj" class="animable" style="transform-origin: 350.33px 225.62px;"/>
        <path d="M353.44,224v3.24H353v-2.84h-.73V224Z" id="elixkscopz1f" class="animable" style="transform-origin: 352.855px 225.62px;"/>
        <path d="M356.31,225.45v.4l-2.08.82v-.39l1.66-.63-1.66-.64v-.38Z" id="elo3247b07e2l" class="animable" style="transform-origin: 355.27px 225.65px;"/>
        <path d="M290.45,236.14l-1.64.63,1.64.64v.38l-2.08-.82v-.4l2.08-.82Z" id="elwgg3iedzzp9" class="animable" style="transform-origin: 289.41px 236.77px;"/>
        <path d="M293.87,236.28c0,.7-.51,1.13-1.36,1.13h-.8v1h-.46v-3.24h1.26C293.36,235.15,293.87,235.57,293.87,236.28Zm-.47,0c0-.46-.31-.73-.9-.73h-.79V237h.79C293.09,237,293.4,236.74,293.4,236.28Z" id="elfpo02svlw6" class="animable" style="transform-origin: 292.56px 236.79px;"/>
        <path d="M296.49,236.57v.4l-2.07.82v-.38l1.65-.64-1.65-.63v-.39Z" id="el7s0snxlti7w" class="animable" style="transform-origin: 295.455px 236.77px;"/>
        <path d="M300.44,236.14l-1.65.63,1.65.64v.38l-2.08-.82v-.4l2.08-.82Z" id="elyuh88ry0p3" class="animable" style="transform-origin: 299.4px 236.77px;"/>
        <path d="M301.23,235.15h.47v3.24h-.47Z" id="elagr40oz8ujr" class="animable" style="transform-origin: 301.465px 236.77px;"/>
        <path d="M305.68,238.39V236l-1.18,2h-.21l-1.18-2v2.35h-.44v-3.24h.38l1.35,2.28,1.34-2.28h.38v3.24Z" id="elup7ulyd364p" class="animable" style="transform-origin: 304.395px 236.75px;"/>
        <path d="M309.34,236.75h.45V238a1.92,1.92,0,0,1-1.23.41,1.66,1.66,0,1,1,1.26-2.82l-.29.29a1.28,1.28,0,0,0-.94-.38,1.25,1.25,0,1,0,0,2.5,1.34,1.34,0,0,0,.76-.21Z" id="el512r0wlis3b" class="animable" style="transform-origin: 308.397px 236.751px;"/>
        <path d="M311.62,238l.17-.36a1.67,1.67,0,0,0,1.07.38c.57,0,.81-.22.81-.5,0-.8-2-.3-2-1.5,0-.5.39-.93,1.24-.93a1.9,1.9,0,0,1,1.05.29l-.16.37a1.68,1.68,0,0,0-.89-.27c-.55,0-.79.24-.79.52,0,.79,2,.3,2,1.49,0,.49-.4.92-1.26.92A1.94,1.94,0,0,1,311.62,238Z" id="el1fk3r6b8003" class="animable" style="transform-origin: 312.87px 236.75px;"/>
        <path d="M317,238.39l-.7-1h-1v1h-.46v-3.24h1.26c.85,0,1.36.42,1.36,1.13a1,1,0,0,1-.72,1l.77,1.09Zm0-2.11c0-.46-.31-.73-.9-.73h-.79V237h.79C316.64,237,317,236.74,317,236.28Z" id="elulkjzh453f" class="animable" style="transform-origin: 316.175px 236.77px;"/>
        <path d="M317.9,236.77a1.64,1.64,0,0,1,1.72-1.66,1.61,1.61,0,0,1,1.24.51l-.31.29a1.18,1.18,0,0,0-.91-.39,1.25,1.25,0,1,0,0,2.5,1.21,1.21,0,0,0,.91-.39l.31.29a1.61,1.61,0,0,1-1.24.51A1.64,1.64,0,0,1,317.9,236.77Z" id="elziw0tqgyev7" class="animable" style="transform-origin: 319.38px 236.77px;"/>
        <path d="M321.34,236h2.08v.36h-2.08Zm0,1.1h2.08v.36h-2.08Z" id="elsvvfe5xeo7q" class="animable" style="transform-origin: 322.38px 236.73px;"/>
        <path d="M325.26,235.15h.39l0,1.25h-.33Zm.84,0h.39l0,1.25h-.33Z" id="elwpi1r92ce3c" class="animable" style="transform-origin: 325.875px 235.775px;"/>
        <path d="M327.27,235.15h.46V238h1.76v.4h-2.22Z" id="el8hpi26hwrda" class="animable" style="transform-origin: 328.38px 236.775px;"/>
        <path d="M329.7,237.16a1.28,1.28,0,1,1,1.28,1.26A1.22,1.22,0,0,1,329.7,237.16Zm2.1,0a.83.83,0,1,0-1.65,0,.83.83,0,1,0,1.65,0Z" id="elotyym84z3x" class="animable" style="transform-origin: 330.98px 237.141px;"/>
        <path d="M334.19,235.91v.43h-.1a.74.74,0,0,0-.78.83v1.22h-.44v-2.45h.42v.41A1,1,0,0,1,334.19,235.91Z" id="el80x1271tn35" class="animable" style="transform-origin: 333.53px 237.149px;"/>
        <path d="M336.93,237.31h-2a.83.83,0,0,0,.89.72.91.91,0,0,0,.71-.29l.25.28a1.35,1.35,0,0,1-2.3-.86,1.21,1.21,0,0,1,1.24-1.25,1.18,1.18,0,0,1,1.21,1.27Zm-2-.32h1.58a.8.8,0,0,0-1.58,0Z" id="el1xw1v3rzk36" class="animable" style="transform-origin: 335.706px 237.162px;"/>
        <path d="M341.63,237v1.41h-.44V237c0-.48-.24-.72-.64-.72s-.74.28-.74.82v1.26h-.44V237c0-.48-.23-.72-.64-.72a.72.72,0,0,0-.74.82v1.26h-.44v-2.45H338v.36a1,1,0,0,1,.84-.39.91.91,0,0,1,.86.46,1.1,1.1,0,0,1,.94-.46A1,1,0,0,1,341.63,237Z" id="eloqm8d1gbdi" class="animable" style="transform-origin: 339.594px 237.144px;"/>
        <path d="M343.61,235.18a.3.3,0,0,1,.31-.3.29.29,0,1,1,0,.58A.29.29,0,0,1,343.61,235.18Zm.08.76h.45v2.45h-.45Z" id="elo1l8gplmhwp" class="animable" style="transform-origin: 343.91px 236.635px;"/>
        <path d="M347.53,237.16a1.19,1.19,0,0,1-1.24,1.26,1,1,0,0,1-.86-.4v1.27H345v-3.35h.42v.39a1,1,0,0,1,.88-.42A1.19,1.19,0,0,1,347.53,237.16Zm-.45,0a.83.83,0,1,0-.83.87A.81.81,0,0,0,347.08,237.16Z" id="el12lp88p1xv6g" class="animable" style="transform-origin: 346.266px 237.599px;"/>
        <path d="M347.84,238.13l.18-.35a1.56,1.56,0,0,0,.86.26c.42,0,.59-.13.59-.34,0-.55-1.56-.07-1.56-1,0-.44.4-.74,1-.74a1.75,1.75,0,0,1,.89.23l-.18.35a1.26,1.26,0,0,0-.71-.2c-.39,0-.58.15-.58.34,0,.58,1.55.11,1.55,1.06,0,.45-.4.73-1.06.73A1.68,1.68,0,0,1,347.84,238.13Z" id="elnv5hunssyy" class="animable" style="transform-origin: 348.86px 237.215px;"/>
        <path d="M352.76,235.94v2.45h-.42V238a1,1,0,0,1-.84.4,1,1,0,0,1-1.06-1.07v-1.41h.45v1.36c0,.48.24.72.66.72a.71.71,0,0,0,.76-.81v-1.27Z" id="elwffbbcxvy1b" class="animable" style="transform-origin: 351.599px 237.161px;"/>
        <path d="M357.69,237v1.41h-.45V237c0-.48-.23-.72-.63-.72s-.74.28-.74.82v1.26h-.45V237c0-.48-.23-.72-.63-.72s-.74.28-.74.82v1.26h-.44v-2.45H354v.36a1,1,0,0,1,.85-.39.9.9,0,0,1,.85.46,1.12,1.12,0,0,1,.95-.46A1,1,0,0,1,357.69,237Z" id="eljbsc7g49fyi" class="animable" style="transform-origin: 355.654px 237.144px;"/>
        <path d="M358.37,235.15h.39l0,1.25h-.33Zm.84,0h.39l0,1.25h-.33Z" id="el6l01vrzvcu8" class="animable" style="transform-origin: 358.985px 235.775px;"/>
        <path d="M362.28,236.57v.4l-2.08.82v-.38l1.65-.64-1.65-.63v-.39Z" id="elqfdioafyaz9" class="animable" style="transform-origin: 361.24px 236.77px;"/>
        <path d="M365,236.14l-1.65.63,1.65.64v.38L362.9,237v-.4l2.08-.82Z" id="elm2jk7ppbq9" class="animable" style="transform-origin: 363.95px 236.785px;"/>
        <path d="M366.69,234.49h.4l-1.53,4.37h-.4Z" id="elob89uvj1cop" class="animable" style="transform-origin: 366.125px 236.675px;"/>
        <path d="M370,236.28c0,.7-.51,1.13-1.36,1.13h-.8v1h-.47v-3.24h1.27C369.52,235.15,370,235.57,370,236.28Zm-.47,0c0-.46-.31-.73-.9-.73h-.79V237h.79C369.25,237,369.56,236.74,369.56,236.28Z" id="elkca2bhxfwmn" class="animable" style="transform-origin: 368.685px 236.79px;"/>
        <path d="M372.65,236.57v.4l-2.08.82v-.38l1.66-.64-1.66-.63v-.39Z" id="el89yi50ri7vu" class="animable" style="transform-origin: 371.61px 236.77px;"/>
        <path d="M290.45,247.26l-1.64.63,1.64.64v.38l-2.08-.82v-.4l2.08-.82Z" id="el4h1jqr1lyek" class="animable" style="transform-origin: 289.41px 247.89px;"/>
        <path d="M292.16,245.61h.41L291,250h-.4Z" id="elqjb4q0isd5" class="animable" style="transform-origin: 291.585px 247.805px;"/>
        <path d="M295.67,248.64c0,.56-.42.88-1.24.88h-1.55v-3.25h1.45c.75,0,1.17.31,1.17.84a.76.76,0,0,1-.44.72A.79.79,0,0,1,295.67,248.64Zm-2.33-2v1h1c.48,0,.75-.17.75-.52s-.27-.52-.75-.52Zm1.86,2c0-.37-.28-.54-.79-.54h-1.07v1.08h1.07C294.92,249.14,295.2,249,295.2,248.6Z" id="el6vq7mjy0wu4" class="animable" style="transform-origin: 294.276px 247.895px;"/>
        <path d="M296.12,247.89a1.73,1.73,0,1,1,1.73,1.66A1.65,1.65,0,0,1,296.12,247.89Zm3,0a1.26,1.26,0,1,0-1.26,1.25A1.22,1.22,0,0,0,299.11,247.89Z" id="el8tbc61t6a4g" class="animable" style="transform-origin: 297.849px 247.821px;"/>
        <path d="M300.28,246.27h1.37a1.63,1.63,0,1,1,0,3.25h-1.37Zm1.34,2.84a1.22,1.22,0,1,0,0-2.44h-.88v2.44Z" id="eltpayelk79ta" class="animable" style="transform-origin: 301.844px 247.895px;"/>
        <path d="M305.21,248.39v1.13h-.46v-1.14l-1.29-2.11h.5l1,1.71,1-1.71h.46Z" id="eli4f9r31m51" class="animable" style="transform-origin: 304.94px 247.895px;"/>
        <path d="M308.87,247.69v.4l-2.08.82v-.38l1.65-.64-1.65-.63v-.39Z" id="elw9l2gqc0pg" class="animable" style="transform-origin: 307.83px 247.89px;"/>
        <path d="M415.21,160.36c0,.15-32.09.26-71.67.26s-71.68-.11-71.68-.26,32.08-.26,71.68-.26S415.21,160.22,415.21,160.36Z" style="fill: rgb(38, 50, 56); transform-origin: 343.535px 160.36px;" id="elj4cfjtrcwp" class="animable"/>
        <path d="M276.15,155.24a.92.92,0,1,1-.92-.92A.93.93,0,0,1,276.15,155.24Z" style="fill: rgb(38, 50, 56); transform-origin: 275.23px 155.24px;" id="elcm4rv4sycht" class="animable"/>
        <circle cx="278.77" cy="155.24" r="0.92" style="fill: rgb(38, 50, 56); transform-origin: 278.77px 155.24px;" id="eltaclzg7lhtl" class="animable"/>
        <path d="M283.24,155.24a.93.93,0,1,1-.92-.92A.93.93,0,0,1,283.24,155.24Z" style="fill: rgb(38, 50, 56); transform-origin: 282.31px 155.25px;" id="el1zkbpphiuxz" class="animable"/>
        <path d="M281,268.78c-.14,0-.26-24.33-.26-54.33s.12-54.34.26-54.34.26,24.32.26,54.34S281.1,268.78,281,268.78Z" style="fill: rgb(224, 224, 224); transform-origin: 281px 214.445px;" id="elssba81nan6n" class="animable"/>
        <rect x="80.21" y="54.78" width="59.25" height="42.24" style="fill: #7E57C2; transform-origin: 109.835px 75.9px;" id="elbob8p252idn" class="animable"/>
        <path d="M139.93,61.05c0,.14-13.38.26-29.87.26s-29.88-.12-29.88-.26,13.38-.26,29.88-.26S139.93,60.9,139.93,61.05Z" style="fill: rgb(255, 255, 255); transform-origin: 110.055px 61.05px;" id="elufi2zdwe85" class="animable"/>
        <path d="M85.05,58a.81.81,0,1,1-.8-.7A.75.75,0,0,1,85.05,58Z" style="fill: rgb(255, 255, 255); transform-origin: 84.2475px 58.1091px;" id="elf09kaqclyr" class="animable"/>
        <path d="M88,58a.74.74,0,0,1-.79.7A.71.71,0,1,1,88,58Z" style="fill: rgb(255, 255, 255); transform-origin: 87.29px 57.9931px;" id="elvse8gi3m15" class="animable"/>
        <ellipse cx="90.06" cy="57.96" rx="0.8" ry="0.7" style="fill: rgb(255, 255, 255); transform-origin: 90.06px 57.96px;" id="elgtbutr1rr39" class="animable"/>
        <path d="M102.12,77.89c0,2.54-1.83,4.07-4.86,4.07h-3.2v3.76H92.8V73.81h4.46C100.29,73.81,102.12,75.34,102.12,77.89Zm-1.25,0c0-1.9-1.26-3-3.65-3H94.06v5.95h3.16C99.61,80.85,100.87,79.76,100.87,77.89Z" style="fill: rgb(255, 255, 255); transform-origin: 97.46px 79.765px;" id="ele120natw8r4" class="animable"/>
        <path d="M114.79,73.81V85.72h-1.24v-5.5H106.1v5.5h-1.26V73.81h1.26v5.31h7.45V73.81Z" style="fill: rgb(255, 255, 255); transform-origin: 109.815px 79.765px;" id="elxihfci51nx" class="animable"/>
        <path d="M128,77.89c0,2.54-1.83,4.07-4.86,4.07h-3.2v3.76h-1.26V73.81h4.46C126.16,73.81,128,75.34,128,77.89Zm-1.26,0c0-1.9-1.26-3-3.64-3h-3.16v5.95h3.16C125.47,80.85,126.73,79.76,126.73,77.89Z" style="fill: rgb(255, 255, 255); transform-origin: 123.34px 79.765px;" id="elp0384t9awig" class="animable"/>
        <rect x="402.39" y="216.3" width="53.56" height="38.18" style="fill: #7E57C2; transform-origin: 429.17px 235.39px;" id="el83da6jxt6ov" class="animable"/>
        <path d="M420.45,234v7.58H418.7v-3.1h-3.44v3.1H413.5V234h1.76v3h3.44v-3Z" style="fill: rgb(255, 255, 255); transform-origin: 416.975px 237.79px;" id="elb1t98z9surl" class="animable"/>
        <path d="M423.82,235.46h-2.43V234H428v1.43h-2.43v6.15h-1.75Z" style="fill: rgb(255, 255, 255); transform-origin: 424.695px 237.79px;" id="elsgpsekvthbn" class="animable"/>
        <path d="M438.13,234h1.76v6.15h3.8v1.43h-5.56Z" style="fill: rgb(255, 255, 255); transform-origin: 440.91px 237.79px;" id="elzoofqv3ygj" class="animable"/>
        <path d="M435.56,241.61v-4.54l-2.23,3.74h-.79l-2.22-3.65v4.45h-1.65V234h1.45l2.84,4.71,2.79-4.71h1.44l0,7.58Z" style="fill: rgb(255, 255, 255); transform-origin: 432.93px 237.805px;" id="elj11ia7cbjqr" class="animable"/>
        <path d="M456.37,222c0,.09-12.09.17-27,.17s-27-.08-27-.17,12.09-.17,27-.17S456.37,221.88,456.37,222Z" style="fill: rgb(255, 255, 255); transform-origin: 429.37px 222px;" id="elu3u6t8wjzj" class="animable"/>
        <path d="M406.76,219.18a.73.73,0,0,1-1.44,0,.73.73,0,0,1,1.44,0Z" style="fill: rgb(255, 255, 255); transform-origin: 406.04px 219.18px;" id="eljokjb3ow4fk" class="animable"/>
        <path d="M409.39,219.18a.73.73,0,0,1-1.44,0,.73.73,0,0,1,1.44,0Z" style="fill: rgb(255, 255, 255); transform-origin: 408.67px 219.18px;" id="elfa12mrybwu" class="animable"/>
        <path d="M412,219.18a.73.73,0,1,1-.72-.63A.68.68,0,0,1,412,219.18Z" style="fill: rgb(255, 255, 255); transform-origin: 411.277px 219.279px;" id="elhg05oyfr7l6" class="animable"/>
        
        
        
        
        
        <path d="M287.05,107.29a7.4,7.4,0,0,1,7.67-7.51,7.07,7.07,0,0,1,5.27,2l-.68.7a6.18,6.18,0,0,0-4.54-1.75,6.51,6.51,0,1,0,0,13,6.2,6.2,0,0,0,4.54-1.78l.68.7a7.09,7.09,0,0,1-5.27,2.07A7.39,7.39,0,0,1,287.05,107.29Z" style="fill: #7E57C2; transform-origin: 293.52px 107.249px;" id="eldd9qsik7rqd" class="animable"/>
        <path d="M302,112.78l.48-.8a7.08,7.08,0,0,0,4.88,1.86c3,0,4.27-1.29,4.27-2.9,0-4.44-9.23-1.77-9.23-7.22,0-2.1,1.6-3.94,5.24-3.94a7.89,7.89,0,0,1,4.46,1.34l-.4.86a7.37,7.37,0,0,0-4.06-1.24c-2.88,0-4.16,1.33-4.16,3,0,4.44,9.23,1.82,9.23,7.19,0,2.09-1.67,3.91-5.33,3.91A7.58,7.58,0,0,1,302,112.78Z" style="fill: #7E57C2; transform-origin: 307.355px 107.311px;" id="elnevgk6xrnkr" class="animable"/>
        <path d="M314.88,112.78l.49-.8a7.06,7.06,0,0,0,4.88,1.86c3,0,4.27-1.29,4.27-2.9,0-4.44-9.23-1.77-9.23-7.22,0-2.1,1.6-3.94,5.24-3.94a7.94,7.94,0,0,1,4.46,1.34l-.4.86a7.37,7.37,0,0,0-4.06-1.24c-2.88,0-4.17,1.33-4.17,3,0,4.44,9.24,1.82,9.24,7.19,0,2.09-1.67,3.91-5.33,3.91A7.62,7.62,0,0,1,314.88,112.78Z" style="fill: #7E57C2; transform-origin: 320.24px 107.311px;" id="el61lu1otbgij" class="animable"/>
        <path d="M338.19,126.52s0-.27,0-.78,0-1.28,0-2.26c0-2,0-4.87-.06-8.56,0-7.39-.06-18-.1-31l.2.21-65.88,0h0l.26-.26c0,15.12,0,29.51,0,42.56l-.24-.24,47.4.12,13.59.06,3.63,0,.94,0h0l-.91,0-3.58,0-13.54.06-47.56.12h-.24v-.24c0-13,0-27.44,0-42.56V83.7h.27l65.88.06h.21V84c0,13-.08,23.67-.11,31.09,0,3.67,0,6.54-.05,8.52,0,1,0,1.69,0,2.21S338.19,126.52,338.19,126.52Z" style="fill: #7E57C2; transform-origin: 305.28px 105.125px;" id="elk1ywboxjc1r" class="animable"/>
        <path d="M338.19,90.28c0,.14-14.76.26-33,.26s-33-.12-33-.26S287,90,305.23,90,338.19,90.13,338.19,90.28Z" style="fill: #7E57C2; transform-origin: 305.19px 90.27px;" id="elckzscoaree" class="animable"/>
        <path d="M277.17,87.17a.81.81,0,1,1-.8-.7A.75.75,0,0,1,277.17,87.17Z" style="fill: #7E57C2; transform-origin: 276.368px 87.2791px;" id="elqae2ngn6ww" class="animable"/>
        <path d="M280.1,87.17a.81.81,0,1,1-.8-.7A.75.75,0,0,1,280.1,87.17Z" style="fill: #7E57C2; transform-origin: 279.298px 87.2791px;" id="elmwglzmmp7ke" class="animable"/>
        <path d="M283,87.17a.81.81,0,1,1-.8-.7A.75.75,0,0,1,283,87.17Z" style="fill: #7E57C2; transform-origin: 282.198px 87.2791px;" id="el9t0ghcfgd2s" class="animable"/>
    </g>
    <g id="freepik--Character--inject-12" class="animable" style="transform-origin: 251.345px 306.536px;">
        <path d="M147.88,272,174,360.13a9.23,9.23,0,0,0,8.84,6.61l106,.29a9.81,9.81,0,0,0,9.82-10.32h0a9.81,9.81,0,0,0-9.79-9.28H248.34L215.88,257H159.06A11.66,11.66,0,0,0,147.88,272Z" style="fill: rgb(69, 90, 100); transform-origin: 223.032px 312.015px;" id="elpe3ufw5gqsn" class="animable"/>
        <path d="M237.56,354.67c0,.21-10.81.37-24.14.37s-24.13-.16-24.13-.37,10.8-.37,24.13-.37S237.56,354.46,237.56,354.67Z" style="fill: rgb(38, 50, 56); transform-origin: 213.425px 354.67px;" id="elpbrutib36aa" class="animable"/>
        <path d="M155.68,259.78c.19-.06,7.41,21.05,16.12,47.16s15.6,47.33,15.41,47.39-7.41-21-16.12-47.16S155.48,259.85,155.68,259.78Z" style="fill: rgb(38, 50, 56); transform-origin: 171.445px 307.055px;" id="eltkytuvvis4o" class="animable"/>
        <polygon points="233.15 445.09 226.69 444.94 226.69 366.74 233.15 366.74 233.15 445.09" style="fill: rgb(69, 90, 100); transform-origin: 229.92px 405.915px;" id="el86wycw3vhgb" class="animable"/>
        <polygon points="199.86 444.73 259.99 444.73 232.75 435.26 226.29 435.26 199.86 444.73" style="fill: rgb(69, 90, 100); transform-origin: 229.925px 439.995px;" id="elha0c4fwu15k" class="animable"/>
        <path d="M184.65,236.76l9.95,49.71-1.78,37.25L259.7,312.6,257.08,280,257,253l16.4,31.78,12.76-24.67-23.37-42.35h0a39.47,39.47,0,0,0-15.29-9.9,31.37,31.37,0,0,0-9.59-1.84h0a38.35,38.35,0,0,1-23.15,0c-.94.12-2.24.25-3.89.44l-.3,0a29.57,29.57,0,0,0-25.81,27.8Z" style="fill: #7E57C2; transform-origin: 235.405px 264.87px;" id="el0ahxli9w9la" class="animable"/>
        <path d="M210.89,206.47s-27.48.21-30.88,29.23L179.55,257l23.66-.2Z" style="fill: #7E57C2; transform-origin: 195.22px 231.735px;" id="elf6z8chx65sa" class="animable"/>
        <path d="M276.54,243.8c0,.21-21.62.38-48.29.38S180,244,180,243.8s21.61-.37,48.29-.37S276.54,243.6,276.54,243.8Z" style="fill: rgb(250, 250, 250); transform-origin: 228.27px 243.805px;" id="elvemcqezpqu" class="animable"/>
        <path d="M276.54,248.41c0,.2-21.62.37-48.29.37s-48.29-.17-48.29-.37,21.61-.38,48.29-.38S276.54,248.2,276.54,248.41Z" style="fill: rgb(250, 250, 250); transform-origin: 228.25px 248.405px;" id="eluy3z7p8bmym" class="animable"/>
        <path d="M275,240c0,.21-21.27.38-47.51.38S180,240.2,180,240s21.27-.37,47.52-.37S275,239.79,275,240Z" style="fill: rgb(250, 250, 250); transform-origin: 227.5px 240.005px;" id="eljh87wv8gn5m" class="animable"/>
        <path d="M256.67,284.77c-.21,0-.12-11.77.2-26.27s.75-26.26.95-26.26.12,11.77-.2,26.27S256.87,284.77,256.67,284.77Z" style="fill: rgb(38, 50, 56); transform-origin: 257.243px 258.505px;" id="el5ckgdbz5d0c" class="animable"/>
        <path d="M247.27,265.69s13,.93,15.34,4.37,5.91,13.23,4.56,13.3a3.68,3.68,0,0,1-2.34-.73l-3.56-6.32s.57,6.1-1.56,6.22S247,284.77,247,284.77Z" style="fill: rgb(255, 190, 157); transform-origin: 257.233px 275.23px;" id="elo6cj7v15slk" class="animable"/>
        <path d="M179.56,251.32l-.05,33.51a12.73,12.73,0,0,0,15.42,11.75l52.41-10.8-.11-21.49L202,273l-.6-22.75Z" style="fill: #7E57C2; transform-origin: 213.425px 273.561px;" id="el27lmgfh662y" class="animable"/>
        <path d="M209.46,293.89a4.51,4.51,0,0,1,.69-.19l2-.46,7.7-1.63L247.16,286l-.27.32c0-6.74,0-14.2,0-22.07l.44.37-9.22,1.77-36,6.85-.39.08V273c.34-10,.63-18.28.83-24.16.12-2.86.21-5.13.28-6.75,0-.73.07-1.32.1-1.77a2.7,2.7,0,0,1,.07-.61,4.81,4.81,0,0,1,0,.61c0,.46,0,1,0,1.78,0,1.62-.06,3.89-.1,6.75-.14,5.89-.33,14.19-.56,24.16l-.38-.31,36-7,9.22-1.76.44-.09v.45c0,7.87,0,15.33,0,22.07v.28l-.27.05L220,292l-7.74,1.45-2.05.36A3.47,3.47,0,0,1,209.46,293.89Z" style="fill: rgb(38, 50, 56); transform-origin: 224.67px 266.8px;" id="elqbt2v18iak" class="animable"/>
        <path d="M239.52,206.47s.1.16.21.49a10.15,10.15,0,0,1,.41,1.48,12.09,12.09,0,0,1-.25,5.64,14.82,14.82,0,0,1-4.54,7,14.14,14.14,0,0,1-9.54,3.61,13,13,0,0,1-9.43-3.83,13.25,13.25,0,0,1-3.51-7.59,11.86,11.86,0,0,1,.66-5.61,7.74,7.74,0,0,1,.67-1.38c.18-.3.28-.45.31-.44s-.32.67-.71,1.92a12.65,12.65,0,0,0-.41,5.44,13,13,0,0,0,3.48,7.18,12.42,12.42,0,0,0,8.94,3.56,13.62,13.62,0,0,0,9.08-3.37,14.63,14.63,0,0,0,4.5-6.66,12.67,12.67,0,0,0,.46-5.44C239.68,207.19,239.44,206.49,239.52,206.47Z" style="fill: rgb(38, 50, 56); transform-origin: 226.57px 215.266px;" id="elvzt1waizm1" class="animable"/>
        <path d="M242.05,287.56a15.75,15.75,0,0,1,0-3.31c.08-2,.18-4.84.2-7.94s0-5.91-.11-7.95a16.25,16.25,0,0,1,0-3.31,13.2,13.2,0,0,1,.5,3.28c.19,2,.34,4.86.32,8s-.2,5.94-.41,8A13.55,13.55,0,0,1,242.05,287.56Z" style="fill: rgb(250, 250, 250); transform-origin: 242.462px 276.305px;" id="ely7sbo6ydp3f" class="animable"/>
        <path d="M239.34,288.11a16.38,16.38,0,0,1-.09-3.29c0-2.31.05-5,.08-7.89V269a15.45,15.45,0,0,1,.12-3.28,13.33,13.33,0,0,1,.41,3.26c.13,2,.24,4.83.22,7.92s-.14,5.89-.3,7.92A13.58,13.58,0,0,1,239.34,288.11Z" style="fill: rgb(250, 250, 250); transform-origin: 239.644px 276.915px;" id="elygpi5p4eoai" class="animable"/>
        <path d="M291.83,421.25l9.9,27.28,14.06,19.31a3,3,0,0,1-.83,4.27h0a3,3,0,0,1-2.71.23c-5.67-2.35-26.47-11.11-27.09-13.14-.71-2.36-14.14-31.7-14.14-31.7Z" style="fill: #7E57C2; transform-origin: 293.683px 446.905px;" id="el3de2urnexso" class="animable"/>
        <g id="elxngnn1ioa8l">
            <g style="opacity: 0.6; transform-origin: 299.745px 464.984px;" class="animable" id="elttb2rr3pzb">
                <path d="M315,472.11l-30.51-14.74.45,1.15a4.54,4.54,0,0,0,2,2.32c2.5,1.35,9.5,4.92,25.23,11.53a3,3,0,0,0,2.79-.26Z" style="fill: rgb(255, 255, 255); transform-origin: 299.745px 464.984px;" id="elai85eipeug" class="animable"/>
            </g>
        </g>
        <g id="elfks6o5rczvw">
            <g style="opacity: 0.6; transform-origin: 286.227px 448.148px;" class="animable" id="elv3cc1ukvqf">
                <path d="M286.61,446.49a1.79,1.79,0,0,1,1.31,2,1.73,1.73,0,0,1-2,1.32,1.89,1.89,0,0,1-1.38-2.14,1.8,1.8,0,0,1,2.21-1.14" style="fill: rgb(255, 255, 255); transform-origin: 286.227px 448.148px;" id="el18hc96kvva3" class="animable"/>
            </g>
        </g>
        <path d="M304.18,462.7a8.91,8.91,0,0,1,1.56-3c1.27-1.42,2.91-1.63,2.88-1.81s-.43-.15-1.1,0a4.76,4.76,0,0,0-3.43,3.74C304,462.29,304.11,462.7,304.18,462.7Z" style="fill: rgb(38, 50, 56); transform-origin: 306.338px 460.233px;" id="elnv9ss96s7wh" class="animable"/>
        <path d="M307.52,465.57c.17.07.7-1.15,1.94-2.1a22.3,22.3,0,0,1,2.51-1.36c0-.17-1.5-.24-2.9.86S307.35,465.55,307.52,465.57Z" style="fill: rgb(38, 50, 56); transform-origin: 309.724px 463.793px;" id="el8fiv6uuhxc2" class="animable"/>
        <path d="M298.79,459.45c.18.08,1-1.79,2.78-3.43s3.71-2.32,3.65-2.5-2.17.24-4.08,2S298.63,459.43,298.79,459.45Z" style="fill: rgb(38, 50, 56); transform-origin: 301.993px 456.467px;" id="elm64wgy1z3r" class="animable"/>
        <path d="M295.09,451.41c.13.14,1.38-1.07,3.3-1.9s3.64-1,3.63-1.15-1.84-.34-3.89.57S295,451.32,295.09,451.41Z" style="fill: rgb(38, 50, 56); transform-origin: 298.552px 449.827px;" id="el29fvdxdrnts" class="animable"/>
        <path d="M292,443.48c.14.12,1.29-1.36,3.38-2.07s3.9-.31,3.94-.49-.41-.3-1.17-.42a6.5,6.5,0,0,0-5.5,1.92C292.11,443,291.91,443.43,292,443.48Z" style="fill: rgb(38, 50, 56); transform-origin: 295.651px 441.967px;" id="eljsdmayjhvoh" class="animable"/>
        <path d="M294.73,439.92a2.66,2.66,0,0,0-.37-1,7.61,7.61,0,0,0-1.85-2.36,3.36,3.36,0,0,0-1.94-1,1.2,1.2,0,0,0-1.16.74,1.93,1.93,0,0,0,0,1.38A4.2,4.2,0,0,0,294.3,440a4.86,4.86,0,0,0,3.54-4.11,1.7,1.7,0,0,0-.43-1.34,1.19,1.19,0,0,0-1.37-.14,4.16,4.16,0,0,0-1.42,1.62,8.69,8.69,0,0,0-1,2.82,2.46,2.46,0,0,0,0,1.1,13.23,13.23,0,0,1,1.46-3.68,3.92,3.92,0,0,1,1.27-1.38.62.62,0,0,1,.75.07,1.16,1.16,0,0,1,.24.89,4.36,4.36,0,0,1-3.11,3.53,3.63,3.63,0,0,1-4.14-1.88,1.39,1.39,0,0,1-.08-1,.65.65,0,0,1,.64-.41,3.05,3.05,0,0,1,1.65.8A11.13,11.13,0,0,1,294.73,439.92Z" style="fill: rgb(38, 50, 56); transform-origin: 293.567px 437.197px;" id="eldt5tiif12wo" class="animable"/>
        <path d="M333.64,414.11l-.85,22.17s22.24,8.32,22.48,12.43l-43-.12L312.15,414Z" style="fill: #7E57C2; transform-origin: 333.71px 431.355px;" id="elel3y9wighya" class="animable"/>
        <g id="eljv08g9yh4cr">
            <g style="opacity: 0.6; transform-origin: 319.903px 435.996px;" class="animable" id="elgrqlsudj8ar">
                <path d="M319.48,434.38a1.76,1.76,0,0,0-1.22,2,1.69,1.69,0,0,0,2,1.23,1.86,1.86,0,0,0,1.28-2.13,1.77,1.77,0,0,0-2.2-1.05" style="fill: rgb(255, 255, 255); transform-origin: 319.903px 435.996px;" id="elbfancku0g4e" class="animable"/>
            </g>
        </g>
        <g id="elryz154aubk">
            <g style="opacity: 0.6; transform-origin: 333.764px 446.925px;" class="animable" id="el3anbs1hyrkp">
                <path d="M312.23,448.59v-3.45l41.36,1.38s1.91.84,1.69,2.19Z" style="fill: rgb(255, 255, 255); transform-origin: 333.764px 446.925px;" id="elqbhs7pdi0g" class="animable"/>
            </g>
        </g>
        <path d="M333.48,436.06c0,.21-1.05.31-2.09,1s-1.59,1.56-1.78,1.47.12-1.3,1.39-2.09S333.53,435.87,333.48,436.06Z" style="fill: rgb(38, 50, 56); transform-origin: 331.52px 437.208px;" id="elp0zdr294iyb" class="animable"/>
        <path d="M338,437.94c.05.21-.86.56-1.58,1.45s-.92,1.83-1.13,1.82-.34-1.2.57-2.29S338,437.74,338,437.94Z" style="fill: rgb(38, 50, 56); transform-origin: 336.57px 439.533px;" id="ely3jyy1vnrcd" class="animable"/>
        <path d="M340.54,443.35c-.19,0-.48-1,.07-2.15s1.52-1.61,1.61-1.43-.52.79-1,1.74S340.75,443.33,340.54,443.35Z" style="fill: rgb(38, 50, 56); transform-origin: 341.26px 441.541px;" id="elway0n0rzgce" class="animable"/>
        <path d="M333.12,431c-.09.19-1.05-.1-2.24,0s-2.12.45-2.23.27.79-.93,2.19-1S333.22,430.83,333.12,431Z" style="fill: rgb(38, 50, 56); transform-origin: 330.884px 430.793px;" id="elum1sgihonbo" class="animable"/>
        <g id="elitrw9ne1tz">
            <g style="opacity: 0.3; transform-origin: 322.81px 420.475px;" class="animable" id="elad0bgx6piss">
                <polygon points="333.47 418.5 333.32 422.45 312.17 422.2 312.15 418.64 333.47 418.5" id="el7xp0hike4i" class="animable" style="transform-origin: 322.81px 420.475px;"/>
            </g>
        </g>
        <path d="M333.21,426.52a4.19,4.19,0,0,1-2.16,0,10.17,10.17,0,0,1-2.25-.7,10,10,0,0,1-1.24-.66,3,3,0,0,1-.65-.51.92.92,0,0,1-.09-1.12,1.16,1.16,0,0,1,.92-.48,2.71,2.71,0,0,1,.81.12,8.43,8.43,0,0,1,1.34.46,7.56,7.56,0,0,1,2,1.31c1,.93,1.34,1.71,1.27,1.76s-.58-.59-1.6-1.36a8.37,8.37,0,0,0-1.92-1.09,7.37,7.37,0,0,0-1.23-.38c-.46-.13-.85-.13-1,.07s-.05.11,0,.24a2.23,2.23,0,0,0,.48.38,11,11,0,0,0,1.14.65,12.11,12.11,0,0,0,2.08.8A13.74,13.74,0,0,1,333.21,426.52Z" style="fill: rgb(38, 50, 56); transform-origin: 329.941px 424.876px;" id="elbg6vwa7mqe" class="animable"/>
        <path d="M332.93,426.82a3.59,3.59,0,0,1-.56-2.09,7.2,7.2,0,0,1,.3-2.36,8,8,0,0,1,.55-1.3A1.8,1.8,0,0,1,334.6,420a1,1,0,0,1,.9.6,3.12,3.12,0,0,1,.22.8,4.7,4.7,0,0,1,0,1.45,5,5,0,0,1-.93,2.22c-.84,1.11-1.72,1.36-1.74,1.29s.67-.51,1.31-1.58a4.82,4.82,0,0,0,.69-2,4.4,4.4,0,0,0,0-1.25c-.06-.45-.23-.82-.4-.78s-.58.34-.76.71a7.54,7.54,0,0,0-.54,1.16,7.74,7.74,0,0,0-.42,2.15C332.83,426,333.05,426.78,332.93,426.82Z" style="fill: rgb(38, 50, 56); transform-origin: 334.07px 423.41px;" id="eldbz117ryk2g" class="animable"/>
        <path d="M312.19,307.84c-25.43,2.63-59.14,6.09-59.14,6.09l4.6,41.39s49.52-13.09,49.17-12,2.3,88.06,2.3,88.06h29.82l.56-98.53A24.77,24.77,0,0,0,312.19,307.84Z" style="fill: rgb(38, 50, 56); transform-origin: 296.276px 369.545px;" id="el9r2ufv9p5yi" class="animable"/>
        <path d="M192.21,324.54v12.83c0,8.74,9.95,18,18.68,18h6.76c5.32,0,13.66-3.88,18-7l2.58-1.89,31.06,96.21s35.53-6.37,35.53-7.49-24.06-78.8-35.17-114.85c-4.54-14.72-20.31-23.28-34.88-18.29-.49.17-1,.36-1.49.56C217.32,309,192.21,324.54,192.21,324.54Z" style="fill: rgb(38, 50, 56); transform-origin: 248.515px 371.661px;" id="el9n9thqk0o7q" class="animable"/>
        <path d="M304.78,435.19a1.79,1.79,0,0,1-.15-.34c-.11-.27-.24-.61-.4-1-.34-.91-.83-2.25-1.41-4-1.19-3.47-2.82-8.54-4.8-14.81-4-12.53-9.28-29.9-15.06-49.1-2.88-9.61-5.61-18.76-8.11-27.1-1.24-4.16-2.41-8.12-3.51-11.83q-.84-2.78-1.6-5.35a47.09,47.09,0,0,0-1.62-4.87,20,20,0,0,0-5-7.11,42.9,42.9,0,0,0-5.26-4.09c-1.52-1-2.73-1.77-3.56-2.27l-.93-.59a1.25,1.25,0,0,1-.31-.22,1.28,1.28,0,0,1,.34.16l1,.52c.85.46,2.09,1.17,3.64,2.16a39.78,39.78,0,0,1,5.38,4,20.14,20.14,0,0,1,5.22,7.2,47.09,47.09,0,0,1,1.68,4.91c.53,1.71,1.07,3.5,1.64,5.35l3.58,11.8c2.51,8.33,5.27,17.48,8.17,27.08,5.78,19.17,11,36.53,14.84,49.17l4.58,14.87,1.28,4c.13.43.23.77.32,1.05S304.8,435.19,304.78,435.19Z" style="fill: rgb(69, 90, 100); transform-origin: 278.929px 368.85px;" id="el8fi5vx4lp1d" class="animable"/>
        <path d="M312.28,330.88c.18.12-1.51,2.66-2.92,6.11s-2.05,6.43-2.27,6.39.1-3.14,1.58-6.68S312.13,330.76,312.28,330.88Z" style="fill: rgb(69, 90, 100); transform-origin: 309.66px 337.128px;" id="el4d6a7zgfxon" class="animable"/>
        <path d="M318,334.88c.08.2-2.48,1.33-5.15,3.44s-4.39,4.32-4.57,4.19,1.32-2.6,4.11-4.77S317.93,334.7,318,334.88Z" style="fill: rgb(69, 90, 100); transform-origin: 313.134px 338.686px;" id="elx64bfvanq5q" class="animable"/>
        <path d="M269.58,442.68c-.19.06-8.58-25.68-18.74-57.5s-18.22-57.67-18-57.73,8.58,25.68,18.74,57.51S269.78,442.62,269.58,442.68Z" style="fill: rgb(69, 90, 100); transform-origin: 251.21px 385.065px;" id="el22w5o31ussg" class="animable"/>
        <polygon points="231.47 292.59 333.12 293.57 352.08 239.99 278.14 240.49 260.98 288.67 231.47 289.12 231.47 292.59" style="fill: rgb(69, 90, 100); transform-origin: 291.775px 266.78px;" id="eltai2u5e48ki" class="animable"/>
        <path d="M308.54,271.4a4.12,4.12,0,1,1,4.65-3.5A4.12,4.12,0,0,1,308.54,271.4Z" style="fill: rgb(255, 255, 255); transform-origin: 309.111px 267.32px;" id="elo6yfe2trrl" class="animable"/>
        <path d="M223.17,147.57c1-3.57,3.65-5.32,7.14-6.51a11.48,11.48,0,0,1,10.5,1.7c2,1.5,3.5,3.67,5.84,4.48,3.84,1.33,8.34-1.54,12,.18a5.24,5.24,0,0,1-2.48,10c2.5.92,3.28,4.49,1.82,6.72s-4.47,3.07-7.1,2.58a14.72,14.72,0,0,1-6.89-3.86c-2-1.78-3.76-3.8-5.88-5.42a11.41,11.41,0,0,0-7.36-2.7c-3.61.19-6.7,2.91-8.31,6.15s-2,6.92-2.18,10.53-.26,7.27-1.33,10.72c-.13.41-.32.86-.72,1-.59.18-1.09-.44-1.38-1a53,53,0,0,1-6.05-19.71c-.41-4-.31-7.78,1.89-11.15s7.75-5.84,10.47-3.71" style="fill: rgb(38, 50, 56); transform-origin: 236.16px 161.822px;" id="el3y0v2q4ka5a" class="animable"/>
        <path d="M216.2,164.3l-1.85,40.46c-.31,6.88.64,17.06,11.54,17.06h0c9.46-.72,12.25-9.56,12.54-16,.13-3,.25-5.58.29-5.89,0,0,10.34-.5,11.55-10.66.58-4.91,1-15.13,1.2-24.37a19.07,19.07,0,0,0-17-19.43l-1-.1C222.8,144.88,216.41,153.64,216.2,164.3Z" style="fill: rgb(255, 190, 157); transform-origin: 232.889px 183.585px;" id="el0uu5m9mbb7z" class="animable"/>
        <path d="M238.75,199.8a23.76,23.76,0,0,1-12.86-5.18s2.35,7.65,12.6,7.82Z" style="fill: rgb(235, 153, 110); transform-origin: 232.32px 198.53px;" id="elkwhrgafnv6" class="animable"/>
        <path d="M247.78,171.42a1.46,1.46,0,0,1-1.56,1.32,1.39,1.39,0,0,1-1.35-1.47,1.46,1.46,0,0,1,1.55-1.32A1.39,1.39,0,0,1,247.78,171.42Z" style="fill: rgb(38, 50, 56); transform-origin: 246.325px 171.345px;" id="elvrq53utyuis" class="animable"/>
        <path d="M248.75,169.68c-.2.17-1.21-.76-2.78-.92s-2.79.5-2.94.29.15-.42.69-.73a4.05,4.05,0,0,1,2.38-.47,3.82,3.82,0,0,1,2.18,1C248.72,169.25,248.85,169.61,248.75,169.68Z" style="fill: rgb(38, 50, 56); transform-origin: 245.887px 168.763px;" id="el5xsozk72ovh" class="animable"/>
        <path d="M232.39,170.32a1.46,1.46,0,0,1-1.56,1.32,1.41,1.41,0,0,1-1.36-1.47,1.48,1.48,0,0,1,1.56-1.32A1.4,1.4,0,0,1,232.39,170.32Z" style="fill: rgb(38, 50, 56); transform-origin: 230.93px 170.246px;" id="el2909s6gmzt3" class="animable"/>
        <path d="M233.35,168.34c-.2.17-1.21-.76-2.78-.93s-2.79.5-2.94.29.15-.41.69-.72a4,4,0,0,1,2.38-.47,3.89,3.89,0,0,1,2.18,1C233.32,167.9,233.45,168.26,233.35,168.34Z" style="fill: rgb(38, 50, 56); transform-origin: 230.487px 167.423px;" id="elufssqldb3yh" class="animable"/>
        <path d="M237.79,180.54a10.23,10.23,0,0,1,2.59-.19c.41,0,.79,0,.89-.3a2.15,2.15,0,0,0-.14-1.22c-.28-1-.56-2.06-.86-3.16-1.18-4.5-2-8.19-1.81-8.24s1.29,3.57,2.47,8.07c.28,1.11.55,2.17.8,3.18a2.27,2.27,0,0,1,0,1.59,1,1,0,0,1-.71.52,2.74,2.74,0,0,1-.69,0A10.67,10.67,0,0,1,237.79,180.54Z" style="fill: rgb(38, 50, 56); transform-origin: 239.832px 174.121px;" id="el5l8yyis4t2s" class="animable"/>
        <path d="M233.08,181.13c.25,0,.08,1.71,1.4,3.07s3.15,1.36,3.14,1.6-.44.29-1.21.23a4.28,4.28,0,0,1-2.63-1.25,3.69,3.69,0,0,1-1.06-2.56C232.73,181.51,233,181.11,233.08,181.13Z" style="fill: rgb(38, 50, 56); transform-origin: 235.17px 183.591px;" id="eltupmdcsn38" class="animable"/>
        <path d="M234.41,162.25c-.2.41-1.74,0-3.6.07s-3.39.37-3.6,0c-.08-.19.22-.56.86-.91a6.19,6.19,0,0,1,5.48,0C234.19,161.69,234.5,162.06,234.41,162.25Z" style="fill: rgb(38, 50, 56); transform-origin: 230.811px 161.636px;" id="elcavxpjknvj" class="animable"/>
        <path d="M248.66,165.1c-.31.32-1.35-.16-2.64-.32s-2.42,0-2.63-.41c-.1-.19.11-.53.63-.82a3.73,3.73,0,0,1,2.21-.35,3.67,3.67,0,0,1,2,.94C248.69,164.55,248.8,164.94,248.66,165.1Z" style="fill: rgb(38, 50, 56); transform-origin: 246.041px 164.184px;" id="el7lj6z0osnj" class="animable"/>
        <path d="M216.23,171.92c-.17-.09-6.77-2.81-7.29,4.17s6.6,6.06,6.62,5.86S216.23,171.92,216.23,171.92Z" style="fill: rgb(255, 190, 157); transform-origin: 212.571px 176.712px;" id="elqapfec2yx0d" class="animable"/>
        <path d="M213.63,179.15s-.13.08-.34.16a1.27,1.27,0,0,1-.91-.05,3.05,3.05,0,0,1-1.2-2.81,4.05,4.05,0,0,1,.47-1.71,1.42,1.42,0,0,1,1-.87.63.63,0,0,1,.69.39c.08.2,0,.34.06.35s.16-.1.13-.4a.74.74,0,0,0-.25-.45.9.9,0,0,0-.66-.23,1.73,1.73,0,0,0-1.35,1,4.19,4.19,0,0,0-.56,1.91c-.06,1.41.56,2.78,1.55,3.15a1.3,1.3,0,0,0,1.12-.11C213.6,179.32,213.65,179.16,213.63,179.15Z" style="fill: rgb(235, 153, 110); transform-origin: 212.17px 176.598px;" id="elmffw9w0mif" class="animable"/>
        <path d="M253.85,163a14.81,14.81,0,0,1-12.74-4.33c-2.25-2.36-3.84-5.58-6.84-6.87a8.34,8.34,0,0,0-6.41.19,16,16,0,0,0-5.26,3.9c1.41,5.38-.52,11-2.43,16.23a2.79,2.79,0,0,1-1,1.52c-.89.55-2.07-.08-2.71-.91a8.63,8.63,0,0,1-1.4-4.73,28.69,28.69,0,0,1,1.26-11.28,19.68,19.68,0,0,1,6.4-9.26A18.54,18.54,0,0,1,236.21,144a22.75,22.75,0,0,1,12.64,6.09,13.33,13.33,0,0,1,3.75,5.38" style="fill: rgb(38, 50, 56); transform-origin: 234.4px 158.84px;" id="el9pteevbzxmv" class="animable"/>
    </g>
    
    
    <g id="freepik--Desk--inject-12" class="animable" style="transform-origin: 253.36px 367.165px;">
        <polygon points="94.46 292.92 94.46 302.48 147.4 302.48 147.4 444.94 152.27 444.94 152.27 302.48 373.36 303.57 373.36 444.94 378.14 444.94 378.14 303.31 412.26 303.58 412.26 292.09 94.46 292.92" style="fill: rgb(38, 50, 56); transform-origin: 253.36px 368.515px;" id="elx63c2rb5vkf" class="animable"/>
        <polygon points="128.34 300.62 149.21 315.65 147.4 317.39 126.35 301.54 128.34 300.62" style="fill: rgb(38, 50, 56); transform-origin: 137.78px 309.005px;" id="elr43jwxjsfm" class="animable"/>
        <polygon points="397.81 302.02 373.59 319.27 375.41 321.01 399.8 302.94 397.81 302.02" style="fill: rgb(38, 50, 56); transform-origin: 386.695px 311.515px;" id="elvx67jaekyg" class="animable"/>
        <rect x="171.44" y="289.39" width="54.72" height="4.03" style="fill: rgb(38, 50, 56); transform-origin: 198.8px 291.405px;" id="elojkd8r2y8pm" class="animable"/>
    </g>
    <defs>
        <filter id="active" height="200%">
            <feMorphology in="SourceAlpha" result="DILATED" operator="dilate" radius="2"/>
            <feFlood flood-color="#32DFEC" flood-opacity="1" result="PINK"/>
            <feComposite in="PINK" in2="DILATED" operator="in" result="OUTLINE"/>
            <feMerge>
                <feMergeNode in="OUTLINE"/>
                <feMergeNode in="SourceGraphic"/>
            </feMerge>
        </filter>
        <filter id="hover" height="200%">
            <feMorphology in="SourceAlpha" result="DILATED" operator="dilate" radius="2"/>
            <feFlood flood-color="#ff0000" flood-opacity="0.5" result="PINK"/>
            <feComposite in="PINK" in2="DILATED" operator="in" result="OUTLINE"/>
            <feMerge>
                <feMergeNode in="OUTLINE"/>
                <feMergeNode in="SourceGraphic"/>
            </feMerge>
            <feColorMatrix type="matrix" values="0   0   0   0   0                0   1   0   0   0                0   0   0   0   0                0   0   0   1   0 "/>
        </filter>
    </defs>
</svg>